<?xml version="1.0" encoding="utf-8"?>
<svg viewBox="215.088 237.828 146.603 147.672" xmlns="http://www.w3.org/2000/svg">
  <g transform="matrix(-0.996965, 0.07784, -0.07784, -0.996965, 353.895544, 368.384893)">
    <path class="st0" d="M 26.29 87.89 C 26.4 86.64 27.51 85.71 28.76 85.83 C 30.01 85.94 30.94 87.05 30.82 88.3 C 30.63 90.4 30.68 92.22 31.15 93.57 C 31.4 94.29 31.79 94.87 32.37 95.26 C 32.79 93.98 33.18 92.67 33.56 91.36 C 35.65 84.3 37.75 77.2 44.17 72.76 C 42.04 69.51 40.8 65.62 40.8 61.45 C 40.8 60.6 40.85 59.76 40.95 58.94 C 38.95 58.47 36.91 58.78 34.74 59.11 L 34.72 59.11 C 31.54 59.59 30.46 61.8 29.1 64.59 C 28.21 66.41 27.23 68.41 25.66 70.47 C 24.65 71.79 23.5 72.88 22.21 73.77 C 22.04 73.92 21.86 74.04 21.67 74.13 C 19.78 75.34 17.64 76.16 15.3 76.71 C 11.37 77.63 6.91 77.75 2.22 77.62 C 0.97 77.6 -0.03 76.56 0 75.3 C 0.03 74.04 1.07 73.05 2.33 73.08 C 6.67 73.2 10.77 73.09 14.27 72.28 C 15 72.11 15.7 71.91 16.37 71.67 C 16.07 71.51 15.76 71.34 15.44 71.19 C 13.41 70.2 11.1 69.44 9.2 68.96 C 7.98 68.65 7.23 67.41 7.54 66.19 C 7.85 64.97 9.09 64.22 10.31 64.53 C 12.48 65.07 15.11 65.94 17.44 67.08 C 18.65 67.67 19.79 68.34 20.78 69.1 C 21.24 68.68 21.66 68.22 22.04 67.71 C 23.36 65.98 24.23 64.2 25.02 62.6 C 26.97 58.61 28.52 55.45 34.05 54.6 L 34.07 54.6 C 36.72 54.2 39.22 53.81 42.01 54.5 C 43.01 51.71 44.58 49.2 46.6 47.11 C 43.07 41.73 36.63 39.83 30.24 37.94 C 25.31 36.48 20.4 35.03 16.46 32.24 C 15.56 33.29 14.39 34.02 12.99 34.5 C 10.99 35.19 8.54 35.29 5.82 35.04 C 4.57 34.93 3.64 33.82 3.76 32.57 C 3.87 31.32 4.98 30.39 6.23 30.51 C 8.33 30.7 10.15 30.65 11.5 30.18 C 12.14 29.96 12.66 29.63 13.04 29.16 C 9.87 25.46 7.92 20.07 8.1 11.7 C 8.12 10.44 9.16 9.44 10.42 9.47 C 11.68 9.49 12.68 10.53 12.65 11.79 C 12.4 23.17 17.1 27.92 23.29 30.73 C 24.22 28.77 25.78 27.53 27.82 26.83 C 29.82 26.14 32.27 26.04 34.99 26.29 C 36.24 26.4 37.17 27.51 37.05 28.76 C 36.93 30.01 35.83 30.94 34.58 30.82 C 32.48 30.63 30.66 30.68 29.31 31.15 C 28.59 31.4 28.01 31.79 27.62 32.37 C 28.9 32.79 30.21 33.18 31.52 33.56 C 38.58 35.65 45.69 37.75 50.12 44.18 C 53.38 42.03 57.29 40.78 61.49 40.78 C 62.32 40.78 63.14 40.83 63.95 40.93 C 64.41 38.95 64.1 36.91 63.77 34.76 L 63.77 34.74 C 63.29 31.56 61.08 30.48 58.29 29.12 C 56.47 28.23 54.47 27.25 52.41 25.68 C 51.09 24.67 50 23.52 49.11 22.23 C 48.96 22.06 48.84 21.88 48.75 21.69 C 47.54 19.8 46.72 17.66 46.17 15.32 C 45.25 11.39 45.13 6.93 45.26 2.24 C 45.29 0.98 46.33 -0.01 47.59 0.02 C 48.85 0.05 49.84 1.09 49.81 2.35 C 49.69 6.69 49.8 10.79 50.61 14.29 C 50.78 15.02 50.98 15.72 51.22 16.39 C 51.38 16.09 51.55 15.78 51.7 15.46 C 52.69 13.43 53.45 11.12 53.93 9.22 C 54.24 8 55.48 7.25 56.7 7.56 C 57.92 7.87 58.67 9.11 58.36 10.33 C 57.82 12.5 56.95 15.13 55.81 17.46 C 55.22 18.67 54.55 19.81 53.79 20.8 C 54.21 21.26 54.67 21.68 55.18 22.06 C 56.91 23.38 58.69 24.25 60.29 25.04 C 64.28 26.99 67.44 28.54 68.29 34.07 L 68.29 34.09 C 68.69 36.72 69.07 39.22 68.4 41.98 C 71.2 42.97 73.73 44.56 75.83 46.58 C 81.17 43.04 83.06 36.63 84.95 30.25 C 86.41 25.32 87.86 20.41 90.65 16.47 C 89.6 15.57 88.87 14.4 88.39 13 C 87.7 11 87.6 8.55 87.85 5.83 C 87.96 4.58 89.07 3.65 90.32 3.77 C 91.57 3.88 92.5 4.99 92.38 6.24 C 92.19 8.34 92.24 10.16 92.71 11.51 C 92.93 12.15 93.26 12.67 93.73 13.05 C 97.43 9.88 102.82 7.93 111.19 8.11 C 112.45 8.13 113.45 9.17 113.42 10.43 C 113.4 11.69 112.36 12.69 111.1 12.66 C 99.72 12.41 94.97 17.11 92.16 23.3 C 94.12 24.23 95.36 25.79 96.06 27.83 C 96.75 29.83 96.85 32.28 96.6 35 C 96.49 36.25 95.38 37.18 94.13 37.06 C 92.88 36.95 91.95 35.84 92.07 34.59 C 92.26 32.49 92.21 30.67 91.74 29.31 C 91.49 28.59 91.1 28.01 90.52 27.62 C 90.1 28.9 89.71 30.21 89.33 31.52 C 87.25 38.56 85.16 45.65 78.77 50.08 C 80.92 53.34 82.18 57.25 82.18 61.45 C 82.18 62.3 82.13 63.13 82.03 63.95 C 84 64.39 86.01 64.08 88.15 63.76 L 88.17 63.76 C 91.35 63.28 92.43 61.07 93.79 58.28 C 94.68 56.46 95.66 54.46 97.23 52.4 C 98.24 51.08 99.39 49.99 100.68 49.1 C 100.85 48.95 101.03 48.83 101.22 48.74 C 103.11 47.53 105.25 46.71 107.59 46.16 C 111.52 45.24 115.98 45.12 120.67 45.25 C 121.93 45.28 122.92 46.32 122.89 47.58 C 122.86 48.84 121.82 49.83 120.56 49.8 C 116.22 49.68 112.12 49.79 108.62 50.6 C 107.89 50.77 107.19 50.97 106.52 51.21 C 106.82 51.37 107.13 51.54 107.45 51.69 C 109.48 52.68 111.79 53.44 113.69 53.92 C 114.91 54.23 115.66 55.47 115.35 56.69 C 115.04 57.91 113.8 58.66 112.58 58.35 C 110.41 57.81 107.78 56.94 105.45 55.8 C 104.24 55.21 103.1 54.54 102.11 53.78 C 101.65 54.2 101.23 54.66 100.85 55.17 C 99.53 56.9 98.66 58.68 97.87 60.28 C 95.92 64.27 94.37 67.43 88.84 68.28 L 88.82 68.28 C 86.2 68.68 83.72 69.06 80.98 68.4 C 79.98 71.21 78.38 73.74 76.35 75.84 C 79.89 81.16 86.3 83.06 92.67 84.94 C 97.6 86.4 102.51 87.85 106.45 90.64 C 107.35 89.59 108.52 88.86 109.92 88.38 C 111.92 87.69 114.37 87.59 117.09 87.84 C 118.34 87.95 119.27 89.06 119.15 90.31 C 119.04 91.56 117.93 92.49 116.68 92.37 C 114.58 92.18 112.76 92.23 111.41 92.7 C 110.77 92.92 110.25 93.25 109.87 93.72 C 113.04 97.42 114.99 102.81 114.81 111.18 C 114.79 112.44 113.75 113.44 112.49 113.41 C 111.23 113.39 110.23 112.35 110.26 111.09 C 110.51 99.71 105.81 94.96 99.62 92.15 C 98.69 94.11 97.13 95.35 95.09 96.05 C 93.09 96.74 90.64 96.84 87.92 96.59 C 86.67 96.48 85.74 95.37 85.86 94.12 C 85.97 92.87 87.08 91.94 88.33 92.06 C 90.43 92.25 92.25 92.2 93.61 91.73 C 94.33 91.48 94.91 91.09 95.3 90.51 C 94.02 90.09 92.71 89.7 91.4 89.32 C 84.36 87.24 77.28 85.15 72.84 78.76 C 69.59 80.89 65.7 82.13 61.52 82.13 C 60.66 82.13 59.8 82.08 58.97 81.97 C 58.52 83.95 58.83 85.98 59.15 88.12 L 59.15 88.14 C 59.63 91.32 61.84 92.4 64.63 93.76 C 66.45 94.65 68.45 95.63 70.51 97.2 C 71.83 98.21 72.92 99.36 73.81 100.65 C 73.96 100.82 74.08 101 74.17 101.19 C 75.38 103.08 76.2 105.22 76.75 107.56 C 77.67 111.49 77.79 115.95 77.66 120.64 C 77.63 121.9 76.59 122.89 75.33 122.86 C 74.07 122.83 73.08 121.79 73.11 120.53 C 73.23 116.19 73.12 112.09 72.31 108.59 C 72.14 107.86 71.94 107.16 71.7 106.49 C 71.54 106.79 71.37 107.1 71.22 107.42 C 70.23 109.45 69.47 111.76 68.99 113.66 C 68.68 114.88 67.44 115.63 66.22 115.32 C 65 115.01 64.25 113.77 64.56 112.55 C 65.1 110.38 65.97 107.75 67.11 105.42 C 67.7 104.21 68.37 103.07 69.13 102.08 C 68.71 101.62 68.25 101.2 67.74 100.82 C 66.01 99.5 64.23 98.63 62.63 97.84 C 58.64 95.89 55.48 94.34 54.63 88.81 L 54.63 88.79 C 54.23 86.15 53.85 83.66 54.52 80.9 C 51.73 79.9 49.21 78.31 47.13 76.28 C 41.77 79.81 39.87 86.24 37.98 92.63 C 36.52 97.56 35.07 102.47 32.28 106.41 C 33.33 107.31 34.06 108.48 34.54 109.88 C 35.23 111.88 35.33 114.33 35.08 117.05 C 34.97 118.3 33.86 119.23 32.61 119.11 C 31.36 119 30.43 117.89 30.55 116.64 C 30.74 114.54 30.69 112.72 30.22 111.36 C 30 110.72 29.67 110.2 29.2 109.82 C 25.5 112.99 20.11 114.94 11.74 114.76 C 10.48 114.74 9.48 113.7 9.51 112.44 C 9.53 111.18 10.57 110.18 11.83 110.21 C 23.21 110.46 27.96 105.76 30.77 99.57 C 28.81 98.64 27.57 97.08 26.87 95.04 C 26.14 93.06 26.04 90.61 26.29 87.89 Z M 72.93 50.01 C 70 47.08 65.95 45.27 61.48 45.27 C 57.01 45.27 52.96 47.08 50.03 50.01 C 47.1 52.94 45.29 56.99 45.29 61.46 C 45.29 65.93 47.1 69.98 50.03 72.91 C 52.96 75.84 57.01 77.65 61.48 77.65 C 65.95 77.65 70 75.84 72.93 72.91 C 75.86 69.98 77.67 65.93 77.67 61.46 C 77.67 56.99 75.86 52.93 72.93 50.01 Z" style="clip-rule: evenodd; fill-rule: evenodd;"/>
  </g>
  <g transform="matrix(-0.997725, -0.067445, -0.067445, 0.997725, 353.303136, 254.758213)">
    <path class="st0" d="M 26.29 87.89 C 26.4 86.64 27.51 85.71 28.76 85.83 C 30.01 85.94 30.94 87.05 30.82 88.3 C 30.63 90.4 30.68 92.22 31.15 93.57 C 31.4 94.29 31.79 94.87 32.37 95.26 C 32.79 93.98 33.18 92.67 33.56 91.36 C 35.65 84.3 37.75 77.2 44.17 72.76 C 42.04 69.51 40.8 65.62 40.8 61.45 C 40.8 60.6 40.85 59.76 40.95 58.94 C 38.95 58.47 36.91 58.78 34.74 59.11 L 34.72 59.11 C 31.54 59.59 30.46 61.8 29.1 64.59 C 28.21 66.41 27.23 68.41 25.66 70.47 C 24.65 71.79 23.5 72.88 22.21 73.77 C 22.04 73.92 21.86 74.04 21.67 74.13 C 19.78 75.34 17.64 76.16 15.3 76.71 C 11.37 77.63 6.91 77.75 2.22 77.62 C 0.97 77.6 -0.03 76.56 0 75.3 C 0.03 74.04 1.07 73.05 2.33 73.08 C 6.67 73.2 10.77 73.09 14.27 72.28 C 15 72.11 15.7 71.91 16.37 71.67 C 16.07 71.51 15.76 71.34 15.44 71.19 C 13.41 70.2 11.1 69.44 9.2 68.96 C 7.98 68.65 7.23 67.41 7.54 66.19 C 7.85 64.97 9.09 64.22 10.31 64.53 C 12.48 65.07 15.11 65.94 17.44 67.08 C 18.65 67.67 19.79 68.34 20.78 69.1 C 21.24 68.68 21.66 68.22 22.04 67.71 C 23.36 65.98 24.23 64.2 25.02 62.6 C 26.97 58.61 28.52 55.45 34.05 54.6 L 34.07 54.6 C 36.72 54.2 39.22 53.81 42.01 54.5 C 43.01 51.71 44.58 49.2 46.6 47.11 C 43.07 41.73 36.63 39.83 30.24 37.94 C 25.31 36.48 20.4 35.03 16.46 32.24 C 15.56 33.29 14.39 34.02 12.99 34.5 C 10.99 35.19 8.54 35.29 5.82 35.04 C 4.57 34.93 3.64 33.82 3.76 32.57 C 3.87 31.32 4.98 30.39 6.23 30.51 C 8.33 30.7 10.15 30.65 11.5 30.18 C 12.14 29.96 12.66 29.63 13.04 29.16 C 9.87 25.46 7.92 20.07 8.1 11.7 C 8.12 10.44 9.16 9.44 10.42 9.47 C 11.68 9.49 12.68 10.53 12.65 11.79 C 12.4 23.17 17.1 27.92 23.29 30.73 C 24.22 28.77 25.78 27.53 27.82 26.83 C 29.82 26.14 32.27 26.04 34.99 26.29 C 36.24 26.4 37.17 27.51 37.05 28.76 C 36.93 30.01 35.83 30.94 34.58 30.82 C 32.48 30.63 30.66 30.68 29.31 31.15 C 28.59 31.4 28.01 31.79 27.62 32.37 C 28.9 32.79 30.21 33.18 31.52 33.56 C 38.58 35.65 45.69 37.75 50.12 44.18 C 53.38 42.03 57.29 40.78 61.49 40.78 C 62.32 40.78 63.14 40.83 63.95 40.93 C 64.41 38.95 64.1 36.91 63.77 34.76 L 63.77 34.74 C 63.29 31.56 61.08 30.48 58.29 29.12 C 56.47 28.23 54.47 27.25 52.41 25.68 C 51.09 24.67 50 23.52 49.11 22.23 C 48.96 22.06 48.84 21.88 48.75 21.69 C 47.54 19.8 46.72 17.66 46.17 15.32 C 45.25 11.39 45.13 6.93 45.26 2.24 C 45.29 0.98 46.33 -0.01 47.59 0.02 C 48.85 0.05 49.84 1.09 49.81 2.35 C 49.69 6.69 49.8 10.79 50.61 14.29 C 50.78 15.02 50.98 15.72 51.22 16.39 C 51.38 16.09 51.55 15.78 51.7 15.46 C 52.69 13.43 53.45 11.12 53.93 9.22 C 54.24 8 55.48 7.25 56.7 7.56 C 57.92 7.87 58.67 9.11 58.36 10.33 C 57.82 12.5 56.95 15.13 55.81 17.46 C 55.22 18.67 54.55 19.81 53.79 20.8 C 54.21 21.26 54.67 21.68 55.18 22.06 C 56.91 23.38 58.69 24.25 60.29 25.04 C 64.28 26.99 67.44 28.54 68.29 34.07 L 68.29 34.09 C 68.69 36.72 69.07 39.22 68.4 41.98 C 71.2 42.97 73.73 44.56 75.83 46.58 C 81.17 43.04 83.06 36.63 84.95 30.25 C 86.41 25.32 87.86 20.41 90.65 16.47 C 89.6 15.57 88.87 14.4 88.39 13 C 87.7 11 87.6 8.55 87.85 5.83 C 87.96 4.58 89.07 3.65 90.32 3.77 C 91.57 3.88 92.5 4.99 92.38 6.24 C 92.19 8.34 92.24 10.16 92.71 11.51 C 92.93 12.15 93.26 12.67 93.73 13.05 C 97.43 9.88 102.82 7.93 111.19 8.11 C 112.45 8.13 113.45 9.17 113.42 10.43 C 113.4 11.69 112.36 12.69 111.1 12.66 C 99.72 12.41 94.97 17.11 92.16 23.3 C 94.12 24.23 95.36 25.79 96.06 27.83 C 96.75 29.83 96.85 32.28 96.6 35 C 96.49 36.25 95.38 37.18 94.13 37.06 C 92.88 36.95 91.95 35.84 92.07 34.59 C 92.26 32.49 92.21 30.67 91.74 29.31 C 91.49 28.59 91.1 28.01 90.52 27.62 C 90.1 28.9 89.71 30.21 89.33 31.52 C 87.25 38.56 85.16 45.65 78.77 50.08 C 80.92 53.34 82.18 57.25 82.18 61.45 C 82.18 62.3 82.13 63.13 82.03 63.95 C 84 64.39 86.01 64.08 88.15 63.76 L 88.17 63.76 C 91.35 63.28 92.43 61.07 93.79 58.28 C 94.68 56.46 95.66 54.46 97.23 52.4 C 98.24 51.08 99.39 49.99 100.68 49.1 C 100.85 48.95 101.03 48.83 101.22 48.74 C 103.11 47.53 105.25 46.71 107.59 46.16 C 111.52 45.24 115.98 45.12 120.67 45.25 C 121.93 45.28 122.92 46.32 122.89 47.58 C 122.86 48.84 121.82 49.83 120.56 49.8 C 116.22 49.68 112.12 49.79 108.62 50.6 C 107.89 50.77 107.19 50.97 106.52 51.21 C 106.82 51.37 107.13 51.54 107.45 51.69 C 109.48 52.68 111.79 53.44 113.69 53.92 C 114.91 54.23 115.66 55.47 115.35 56.69 C 115.04 57.91 113.8 58.66 112.58 58.35 C 110.41 57.81 107.78 56.94 105.45 55.8 C 104.24 55.21 103.1 54.54 102.11 53.78 C 101.65 54.2 101.23 54.66 100.85 55.17 C 99.53 56.9 98.66 58.68 97.87 60.28 C 95.92 64.27 94.37 67.43 88.84 68.28 L 88.82 68.28 C 86.2 68.68 83.72 69.06 80.98 68.4 C 79.98 71.21 78.38 73.74 76.35 75.84 C 79.89 81.16 86.3 83.06 92.67 84.94 C 97.6 86.4 102.51 87.85 106.45 90.64 C 107.35 89.59 108.52 88.86 109.92 88.38 C 111.92 87.69 114.37 87.59 117.09 87.84 C 118.34 87.95 119.27 89.06 119.15 90.31 C 119.04 91.56 117.93 92.49 116.68 92.37 C 114.58 92.18 112.76 92.23 111.41 92.7 C 110.77 92.92 110.25 93.25 109.87 93.72 C 113.04 97.42 114.99 102.81 114.81 111.18 C 114.79 112.44 113.75 113.44 112.49 113.41 C 111.23 113.39 110.23 112.35 110.26 111.09 C 110.51 99.71 105.81 94.96 99.62 92.15 C 98.69 94.11 97.13 95.35 95.09 96.05 C 93.09 96.74 90.64 96.84 87.92 96.59 C 86.67 96.48 85.74 95.37 85.86 94.12 C 85.97 92.87 87.08 91.94 88.33 92.06 C 90.43 92.25 92.25 92.2 93.61 91.73 C 94.33 91.48 94.91 91.09 95.3 90.51 C 94.02 90.09 92.71 89.7 91.4 89.32 C 84.36 87.24 77.28 85.15 72.84 78.76 C 69.59 80.89 65.7 82.13 61.52 82.13 C 60.66 82.13 59.8 82.08 58.97 81.97 C 58.52 83.95 58.83 85.98 59.15 88.12 L 59.15 88.14 C 59.63 91.32 61.84 92.4 64.63 93.76 C 66.45 94.65 68.45 95.63 70.51 97.2 C 71.83 98.21 72.92 99.36 73.81 100.65 C 73.96 100.82 74.08 101 74.17 101.19 C 75.38 103.08 76.2 105.22 76.75 107.56 C 77.67 111.49 77.79 115.95 77.66 120.64 C 77.63 121.9 76.59 122.89 75.33 122.86 C 74.07 122.83 73.08 121.79 73.11 120.53 C 73.23 116.19 73.12 112.09 72.31 108.59 C 72.14 107.86 71.94 107.16 71.7 106.49 C 71.54 106.79 71.37 107.1 71.22 107.42 C 70.23 109.45 69.47 111.76 68.99 113.66 C 68.68 114.88 67.44 115.63 66.22 115.32 C 65 115.01 64.25 113.77 64.56 112.55 C 65.1 110.38 65.97 107.75 67.11 105.42 C 67.7 104.21 68.37 103.07 69.13 102.08 C 68.71 101.62 68.25 101.2 67.74 100.82 C 66.01 99.5 64.23 98.63 62.63 97.84 C 58.64 95.89 55.48 94.34 54.63 88.81 L 54.63 88.79 C 54.23 86.15 53.85 83.66 54.52 80.9 C 51.73 79.9 49.21 78.31 47.13 76.28 C 41.77 79.81 39.87 86.24 37.98 92.63 C 36.52 97.56 35.07 102.47 32.28 106.41 C 33.33 107.31 34.06 108.48 34.54 109.88 C 35.23 111.88 35.33 114.33 35.08 117.05 C 34.97 118.3 33.86 119.23 32.61 119.11 C 31.36 119 30.43 117.89 30.55 116.64 C 30.74 114.54 30.69 112.72 30.22 111.36 C 30 110.72 29.67 110.2 29.2 109.82 C 25.5 112.99 20.11 114.94 11.74 114.76 C 10.48 114.74 9.48 113.7 9.51 112.44 C 9.53 111.18 10.57 110.18 11.83 110.21 C 23.21 110.46 27.96 105.76 30.77 99.57 C 28.81 98.64 27.57 97.08 26.87 95.04 C 26.14 93.06 26.04 90.61 26.29 87.89 Z M 72.93 50.01 C 70 47.08 65.95 45.27 61.48 45.27 C 57.01 45.27 52.96 47.08 50.03 50.01 C 47.1 52.94 45.29 56.99 45.29 61.46 C 45.29 65.93 47.1 69.98 50.03 72.91 C 52.96 75.84 57.01 77.65 61.48 77.65 C 65.95 77.65 70 75.84 72.93 72.91 C 75.86 69.98 77.67 65.93 77.67 61.46 C 77.67 56.99 75.86 52.93 72.93 50.01 Z" style="clip-rule: evenodd; fill-rule: evenodd;"/>
  </g>
  <path d="M 274.888 312.255 L 279.286 311.979 Q 279.429 313.051 279.868 313.612 Q 280.582 314.52 281.909 314.52 Q 282.899 314.52 283.434 314.056 Q 283.97 313.591 283.97 312.979 Q 283.97 312.397 283.46 311.938 Q 282.95 311.479 281.092 311.071 Q 278.051 310.387 276.755 309.254 Q 275.449 308.121 275.449 306.366 Q 275.449 305.213 276.117 304.187 Q 276.786 303.162 278.128 302.575 Q 279.47 301.988 281.807 301.988 Q 284.674 301.988 286.179 303.055 Q 287.685 304.121 287.97 306.448 L 283.613 306.703 Q 283.439 305.693 282.883 305.233 Q 282.327 304.774 281.347 304.774 Q 280.541 304.774 280.133 305.116 Q 279.725 305.458 279.725 305.948 Q 279.725 306.305 280.062 306.591 Q 280.388 306.887 281.613 307.142 Q 284.644 307.795 285.955 308.463 Q 287.266 309.132 287.863 310.122 Q 288.46 311.112 288.46 312.336 Q 288.46 313.775 287.664 314.99 Q 286.868 316.204 285.44 316.832 Q 284.011 317.459 281.837 317.459 Q 278.021 317.459 276.551 315.99 Q 275.081 314.52 274.888 312.255 Z M 300.753 321.327 L 296.559 321.327 L 296.559 316.153 Q 295.947 316.796 295.156 317.122 Q 294.365 317.449 293.396 317.449 Q 291.416 317.449 290.12 316.025 Q 288.824 314.602 288.824 311.948 Q 288.824 310.173 289.416 308.815 Q 290.007 307.458 291.059 306.79 Q 292.11 306.121 293.375 306.121 Q 294.467 306.121 295.386 306.601 Q 296.059 306.958 296.865 307.968 L 296.865 306.366 L 300.753 306.366 Z M 296.59 311.816 Q 296.59 310.418 296.064 309.795 Q 295.539 309.173 294.732 309.173 Q 293.987 309.173 293.482 309.79 Q 292.977 310.407 292.977 311.857 Q 292.977 313.153 293.472 313.75 Q 293.967 314.347 294.681 314.347 Q 295.518 314.347 296.054 313.724 Q 296.59 313.102 296.59 311.816 Z" transform="matrix(0.999848, -0.01745, 0.01745, 0.999848, -6.317047, 5.623981)" style="fill: rgb(51, 51, 51); white-space: pre;"/>
</svg>