<?xml version="1.0" encoding="utf-8"?><svg version="1.1" id="Layer_1" xmlns="http://www.w3.org/2000/svg" xmlns:xlink="http://www.w3.org/1999/xlink" x="0px" y="0px" viewBox="0 0 122.88 122.88" style="enable-background:new 0 0 122.88 122.88" xml:space="preserve"><style type="text/css">.st0{fill-rule:evenodd;clip-rule:evenodd;fill:#D8453E;}</style><g><path class="st0" d="M61.44,0c33.93,0,61.44,27.51,61.44,61.44c0,33.93-27.51,61.44-61.44,61.44S0,95.37,0,61.44 C0,27.51,27.51,0,61.44,0L61.44,0z M38.37,61.36l-0.15,0.15l-1.19-0.47V43.48c0-0.81,0.24-1.58,0.65-2.23l0,0 c0.08-0.13,0.17-0.25,0.26-0.37c0.1-0.13,0.2-0.24,0.3-0.34l0.01-0.01c0.31-0.31,0.68-0.58,1.08-0.78l0.02-0.01l0.2-0.1l0.02-0.01 c0.49-0.21,1.04-0.33,1.61-0.33l0,0h0.02l0,0c1.15,0,2.2,0.47,2.95,1.22c0.31,0.31,0.58,0.68,0.78,1.08l0.01,0.02l0.09,0.2 l0.01,0.02c0.21,0.49,0.33,1.04,0.33,1.61v0.01v0.02v14.28v0.65l-0.65,0.04c-1.76,0.11-3.39,0.68-4.76,1.59 c-0.27,0.18-0.54,0.38-0.79,0.58c-0.23,0.19-0.48,0.41-0.72,0.66L38.37,61.36L38.37,61.36L38.37,61.36L38.37,61.36z M74.58,73.28 l0.7,0.26l0.3,0.22c0.05,0.07,0.11,0.13,0.19,0.18l0,0l0.09,0.05V74c0.1,0.05,0.2,0.07,0.31,0.07l0,0h0.02 c0.1,0,0.19-0.02,0.28-0.05l0.07-0.03l0.07-0.04l0.02-0.01l0.02-0.01c0.31-0.18,0.72-0.49,1.17-0.86c0.46-0.38,0.98-0.85,1.49-1.33 c1.01-0.95,2.15-2.09,2.61-2.55l0.02-0.02c1.45-1.45,2.92-2.12,4.22-2.2c0.26-0.02,0.53-0.01,0.77,0.02 c0.25,0.03,0.5,0.08,0.73,0.15h0.01l0.03,0.01h0.01c0.46,0.15,0.89,0.38,1.27,0.69l0.02,0.02L89.19,68l0.03,0.03l0.17,0.17 l0.03,0.03l0.01,0.01l0,0l0.01,0.01l0,0c0.32,0.35,0.58,0.77,0.77,1.24l0.01,0.02l0.09,0.24l0.01,0.05l0.07,0.25l0.01,0.03 l0.01,0.03l0,0c0.33,1.36,0.06,3.02-1.08,4.68c-0.21,0.31-0.46,0.63-0.74,0.94c-0.27,0.31-0.58,0.62-0.93,0.93l0,0l-0.05,0.04 l-0.06,0.05l-0.04,0.04l-0.02,0.02L73.45,90.99l-0.49,0.53l-0.03-0.03c-0.77,0.7-1.53,1.31-2.3,1.83c-0.92,0.62-1.84,1.12-2.8,1.49 c-0.97,0.38-1.98,0.66-3.05,0.84c-1.07,0.17-2.2,0.26-3.4,0.26h-9.1c-3.03,0-5.85-0.89-8.22-2.42l0,0 c-0.45-0.29-0.9-0.62-1.33-0.97c-0.43-0.35-0.84-0.72-1.21-1.1l-0.01-0.01l0,0c-1.15-1.17-2.12-2.53-2.86-4.02 c-0.14-0.3-0.28-0.6-0.41-0.89c-0.78-1.85-1.21-3.89-1.21-6.01l0,0v-0.02v-12c0-1.1,0.21-2.17,0.57-3.14v-0.01 c0.07-0.18,0.15-0.37,0.23-0.56l0,0c0.09-0.18,0.18-0.37,0.27-0.54l0.01-0.01l0.02-0.03l0.01-0.02c0.35-0.56,0.78-1.08,1.25-1.54 l0.01-0.01l0.26-0.25l0.02-0.02l0.27-0.23l0.02-0.02L40,62.07l0,0c0.61-0.49,1.28-0.9,2.01-1.21l0,0c0.17-0.07,0.33-0.14,0.43-0.17 l0,0c0.89-0.33,1.86-0.5,2.87-0.5l0,0h0.02h0.37l0.17,0.02l0.15,0.04l0.12,0.01l0,0h9.88l0,0h0.06h0.05h0.06l0,0h9.88l0,0h0.03 h0.04h0.03l0,0h0.73c1.45,0,2.83,0.37,4.03,1.02l0,0c0.24,0.13,0.47,0.27,0.68,0.41l0,0h0.01c0.21,0.14,0.42,0.3,0.63,0.47 l0.01,0.01l0.01,0.01l0,0c1.04,0.85,1.89,1.95,2.43,3.2c0.11,0.26,0.21,0.51,0.29,0.75l0,0c0.09,0.26,0.15,0.52,0.22,0.78v0.01 l0.01,0.04l0.01,0.06c0.01,0.05,0.01,0.09,0.02,0.13l0,0l0.01,0.02l0,0l0.02,0.06l0,0l0.01,0.03l0.07,0.21l0.03,0.37v0.02 l0.01,0.15v0.02l0.01,0.26v0.02v0.14v0.01v2.54v0.95l-0.9-0.3c-1.41-0.46-2.75-0.78-4.02-0.95l0,0c-0.29-0.04-0.56-0.07-0.81-0.1 c-0.26-0.02-0.53-0.05-0.8-0.06l-0.58-0.02c-1.63-0.02-3.14,0.21-4.47,0.67c-0.29,0.1-0.57,0.21-0.81,0.31 c-0.26,0.11-0.52,0.24-0.76,0.37l-0.41,0.23c-1.28,0.77-2.33,1.8-3.14,3.06c-0.17,0.26-0.32,0.51-0.45,0.76 c-0.14,0.26-0.26,0.54-0.39,0.82l0,0l-0.01,0.02l0,0c-0.39,0.93-0.67,1.95-0.83,3.05c-0.03,0.25-0.07,0.5-0.09,0.73 c-0.02,0.19-0.04,0.4-0.05,0.61l1.52,0.02c0.05-0.77,0.16-1.51,0.33-2.2l0,0c0.05-0.21,0.1-0.41,0.15-0.59l0,0 c0.05-0.17,0.11-0.37,0.19-0.56l0,0l0.18-0.47l0,0c0.51-1.22,1.25-2.25,2.17-3.08c0.18-0.16,0.38-0.31,0.57-0.46 c0.21-0.15,0.41-0.29,0.61-0.41l0.01-0.01l0.02-0.01l0,0c0.97-0.58,2.11-0.99,3.38-1.2c0.26-0.04,0.54-0.08,0.82-0.1 c0.28-0.03,0.57-0.04,0.85-0.05h0.02h0.56h0.01c1.32,0.02,2.74,0.22,4.26,0.61l0,0c0.35,0.09,0.68,0.18,0.98,0.28 c0.35,0.11,0.69,0.22,1.01,0.33L74.58,73.28L74.58,73.28L74.58,73.28z M46.03,60.25L46.03,60.25L46.03,60.25L46.03,60.25 L46.03,60.25L46.03,60.25z M64.63,58.43h-6.98h-0.69v-0.69V29.76l0,0c0-1.15,0.47-2.2,1.22-2.95c0.31-0.31,0.68-0.58,1.08-0.78 l0.02-0.01l0.2-0.1l0.02-0.01c0.49-0.21,1.04-0.33,1.61-0.33v-0.01h0.02v0.01c1.15,0,2.2,0.47,2.95,1.22 c0.31,0.31,0.57,0.67,0.78,1.08l0.01,0.02l0.09,0.2l0.01,0.02c0.21,0.49,0.33,1.04,0.33,1.61v0.01v0.02v27.98v0.69L64.63,58.43 L64.63,58.43L64.63,58.43z M67.72,58.46l-0.13-0.01l-0.64-0.05v-0.64v-21.3l0,0c0-1.15,0.47-2.2,1.22-2.95 c0.31-0.31,0.68-0.57,1.08-0.78l0.02-0.01l0.2-0.09l0.02-0.01c0.49-0.21,1.04-0.33,1.61-0.33l0,0h0.02c0.81,0,1.58,0.24,2.23,0.65 l0,0l0.01,0.01c0.13,0.07,0.25,0.17,0.36,0.26l0,0l0.01,0.01c0.12,0.09,0.23,0.2,0.34,0.3l0.01,0.01c0.31,0.31,0.58,0.68,0.78,1.08 l0.01,0.02l0.1,0.2l0.01,0.02c0.21,0.49,0.33,1.04,0.33,1.61l0,0v0.02v24.55l-1.18,0.48L74,61.38c-1.18-1.18-2.65-2.07-4.29-2.55 c-0.33-0.1-0.66-0.18-0.99-0.23C68.41,58.53,68.07,58.49,67.72,58.46L67.72,58.46L67.72,58.46z M54.58,58.43h-6.98h-0.69v-0.69 V43.48l0,0v-7.08l0,0c0-0.81,0.24-1.59,0.65-2.23l0,0c0.08-0.13,0.17-0.26,0.26-0.37c0.1-0.13,0.2-0.24,0.3-0.34l0.01-0.01 c0.31-0.31,0.67-0.57,1.08-0.78l0.02-0.01l0.2-0.09l0.02-0.01c0.49-0.21,1.04-0.33,1.61-0.33l0,0h0.02l0,0 c1.15,0,2.2,0.47,2.95,1.22c0.31,0.31,0.57,0.67,0.78,1.08l0.01,0.02l0.1,0.2l0.01,0.02c0.21,0.49,0.33,1.04,0.33,1.61l0,0v0.02 v21.35v0.69L54.58,58.43L54.58,58.43L54.58,58.43z"/></g></svg>