<?xml version="1.0" encoding="utf-8"?>
<svg viewBox="25.415 18.459 420.813 185.126" xmlns="http://www.w3.org/2000/svg">
  <path style="fill: rgb(0, 0, 0);" d="M 357.652 47.914 C 357.359 48.168 358.225 49.844 359.578 51.638 C 361.895 54.708 362.024 55.162 361.817 59.43 C 361.563 64.632 359.959 69.412 357.654 71.829 C 354.857 74.764 348.824 79.074 346.309 79.936 C 344.969 80.395 341.082 82.141 337.67 83.818 C 330.457 87.363 322.762 90.245 313.171 92.996 C 309.419 94.074 303.785 95.706 300.656 96.624 C 293.784 98.639 274.457 102.256 260.145 104.205 C 254.016 105.039 251.919 105.083 244.665 104.535 C 239.294 104.13 232.508 103.221 225.809 102.011 C 220.053 100.971 212.095 99.554 208.121 98.864 C 204.149 98.174 199.972 97.303 198.837 96.929 C 197.704 96.555 195.719 96.136 194.426 96 C 193.134 95.864 188.927 94.632 185.079 93.263 L 178.094 91.461 L 165.801 89.723 C 145.099 87.957 142.967 86.8 143.595 77.672 C 143.918 72.991 143.968 72.878 147.431 69.03 C 151.664 64.324 157.094 61.145 164.296 59.153 C 169.574 57.694 171.035 56.688 167.576 56.895 C 165.218 57.036 157.926 59.18 154.874 60.628 C 151.036 62.449 146.402 66.104 143.095 69.92 C 139.159 74.459 136.813 75.532 132.519 74.758 C 128.302 73.998 125.536 72.043 121.757 67.152 C 118.928 63.492 118.52 62.554 118.343 59.308 C 118.077 54.433 117.424 52.856 114.795 50.751 C 112.187 48.665 108.229 47.21 102.165 46.11 C 98.536 45.45 97.773 45.433 97.991 46.011 C 98.292 46.811 99.919 47.381 105.832 48.76 C 110.851 49.928 114.299 52.353 115.156 55.319 C 116.087 58.544 115.501 64.96 114.152 66.318 C 112.794 67.685 108.545 68.18 104.963 67.392 C 103.684 67.111 98.055 66.304 92.454 65.599 C 86.854 64.895 81.406 64 80.347 63.613 C 79.288 63.225 75.899 60.928 72.815 58.51 C 66.401 53.481 61.888 50.438 60.645 50.307 C 58.87 50.12 60.237 51.774 64.046 54.422 C 66.211 55.929 70.285 58.909 73.098 61.046 L 78.211 64.931 L 85.487 66.283 C 89.61 67.052 92.977 67.921 93.257 68.294 C 93.891 69.134 92.48 72.679 90.832 74.384 C 88.405 76.899 89.644 76.958 61.181 72.957 C 53.735 71.909 52.954 71.875 53.86 72.629 C 54.911 73.505 68.636 75.966 77.874 76.937 C 81.786 77.348 82.21 77.481 81.219 77.99 C 78.677 79.289 65.928 82.469 61.871 82.814 C 59.485 83.017 56.698 83.309 55.681 83.46 C 53.995 83.712 53.941 83.793 55.073 84.353 C 57.946 85.773 62.821 85.084 77.227 81.221 C 80.766 80.273 84.183 79.551 84.821 79.617 C 85.46 79.683 86.525 80.229 87.19 80.83 C 88.215 81.76 88.275 82.498 87.591 85.741 C 86.394 91.422 84.868 91.558 73.349 92.832 C 62.898 93.986 61.066 95.041 60.967 95.979 C 60.86 97.004 64.694 95.881 71.214 94.543 C 74.191 93.933 77.491 94.416 78.202 94.491 C 81.917 94.881 76.669 98.157 71.149 98.892 C 64.244 99.812 57.895 101.047 57.584 101.533 C 56.848 102.679 61.962 102.268 70.049 100.536 C 78.416 98.741 78.814 98.586 82.101 95.874 C 87.695 91.256 91.331 90.3 94.025 92.74 C 95.894 94.433 94.542 98.127 91.04 100.892 C 89.509 102.102 87.594 104.272 86.788 105.717 C 84.969 108.971 83.143 109.798 72.566 112.167 C 64.576 113.956 59.169 115.966 59.864 116.887 C 60.38 117.571 62.298 117.267 65.637 115.972 C 67.201 115.366 71.667 114.213 75.561 113.412 C 79.455 112.612 83.181 111.638 83.842 111.248 C 84.503 110.858 86.732 108.746 88.795 106.555 C 92.942 102.152 96.294 100.356 99.886 101.235 C 103.586 102.141 104.408 104.233 104.734 110.42 C 105.051 116.451 104.335 124.527 102.349 126.582 C 101.679 127.275 99.771 128.717 98.108 129.783 C 93.731 132.595 89.648 136.376 89.863 137.418 C 90.005 138.106 90.698 137.825 92.81 136.22 C 100.03 130.732 102.421 129.156 103.377 129.257 C 103.946 129.316 104.725 130.22 105.106 131.263 C 106.399 134.798 108.803 138.254 109.661 137.808 C 110.21 137.521 109.827 136.048 108.441 133.118 C 106.445 128.897 106.429 128.756 107.236 121.389 C 107.686 117.287 108.339 113.387 108.69 112.723 C 109.612 110.969 113.034 110.496 115.733 111.748 C 116.861 112.273 118.193 113.102 118.692 113.593 C 119.19 114.083 120.758 115.018 122.176 115.669 C 126.216 117.523 126.462 118.686 125.025 129.097 C 124.087 135.88 128.451 139.732 129.087 139.799 C 130.189 139.915 126.394 136.607 127.707 129.99 C 128.291 127.038 128.982 124.647 129.243 124.675 C 129.788 124.732 136.174 129.625 136.92 131.837 C 137.554 133.711 142.737 137.717 142.902 136.144 C 143.1 134.258 134.415 127.32 131.024 122.081 C 127.19 116.158 126.654 114.032 127.888 109.62 C 128.969 105.757 130.54 104.291 134.632 103.323 C 136.87 102.794 137.627 102.268 138.409 100.698 C 140.691 96.119 141.395 95.177 143.398 94.032 C 145.292 92.946 146.331 92.831 153.59 92.887 C 165.586 92.982 176.402 94.54 184.992 97.411 C 195.339 100.868 237.362 108.821 247 109.147 C 253.41 109.362 275.993 106.745 281.618 105.135 C 283.614 104.564 285.401 104.591 292.169 105.301 C 301.295 106.259 304.923 107.136 323.188 111.562 C 335.399 114.52 345.363 118.171 347.617 119.952 C 348.22 120.429 348.909 121.409 349.077 122.818 C 349.684 127.932 354.321 136.493 357.967 139.232 C 360.471 141.114 360.196 139.851 357.024 134.924 C 351.814 126.83 350.137 120.551 353.073 120.126 C 354.22 119.96 360.667 125.058 367.316 131.391 C 368.501 132.52 370.064 133.44 370.951 133.533 C 373.362 133.787 372.962 132.375 370.223 130.959 C 368.88 130.265 367.801 129.503 367.826 129.265 C 367.851 129.027 365.749 126.995 363.153 124.751 C 360.558 122.506 358.446 120.561 358.459 120.429 C 358.473 120.297 362.02 120.412 366.339 120.684 C 375.851 121.282 384.962 120.495 388.382 118.779 C 391.307 117.311 390.67 116.781 386.959 117.595 C 385.367 117.943 381.151 118.523 377.591 118.885 C 371.655 119.485 370.38 119.445 362.198 118.399 C 354.737 117.444 352.524 116.972 348.681 115.509 C 338.94 111.804 327.154 108.382 311.035 104.582 C 305.41 103.257 297.083 101.965 297.103 101.777 C 297.141 101.413 313.07 97.363 319.629 95.047 C 326.223 92.718 333.469 89.933 340.198 87.058 L 346.417 84.237 L 350.357 84.651 C 352.524 84.879 356.572 85.788 359.355 86.674 C 363.58 88.018 366.158 88.469 375.021 89.416 C 385.587 90.543 385.65 90.543 390.38 89.465 C 396.088 88.165 397.731 88.29 403.387 90.468 C 407.277 91.964 408.766 92.248 417.482 93.164 C 424.748 93.928 427.451 94.047 428.105 93.628 C 428.589 93.32 428.784 92.902 428.538 92.701 C 428.294 92.498 423.748 91.878 418.436 91.319 C 409.813 90.413 408.242 90.111 403.778 88.505 C 401.027 87.515 398.795 86.53 398.817 86.315 C 398.906 85.47 404.855 83.482 408.917 82.938 C 411.28 82.623 413.237 82.07 413.275 81.709 C 413.374 80.766 411.392 80.717 406.679 81.542 C 402.793 82.222 401.459 82.167 401.547 81.332 C 401.639 80.458 408.572 74.767 411.457 73.197 C 415.969 70.743 414.457 70.276 409.759 72.673 C 406.304 74.437 403.697 76.535 396.96 82.979 C 392.672 87.08 387.979 88.764 381.191 88.637 C 376.567 88.55 363.009 86.193 359.736 84.907 C 358.416 84.388 355.169 83.587 352.521 83.126 C 349.874 82.664 347.814 82.16 347.947 82.005 C 349.005 80.761 354.688 77.037 358.945 74.799 C 362.156 73.113 364.529 71.415 365.211 70.324 C 366.792 67.788 367.419 67.498 374.197 66.147 C 377.561 65.478 381.32 64.432 382.551 63.824 C 387.919 61.175 393.799 56.455 392.561 55.788 C 391.874 55.421 390.079 56.399 388.552 57.975 C 386.389 60.209 380.228 63.132 375.786 64.034 C 369.89 65.23 368.688 65.091 368.883 63.239 C 369.129 60.894 367.216 61.299 366.189 63.807 C 364.625 67.624 363.812 66.188 364.07 60.055 C 364.286 54.884 364.125 53.979 362.615 51.872 C 360.539 48.974 358.399 47.266 357.652 47.914 Z M 120.665 69.454 C 121.893 71.023 124.063 73.058 125.489 73.976 C 127.858 75.502 128.608 75.702 134.293 76.327 C 141.429 77.113 141.433 77.116 141.035 82.199 C 140.851 84.557 141.099 85.168 142.826 86.591 C 144.615 88.065 144.74 88.406 143.983 89.747 C 143.516 90.576 142.388 91.668 141.476 92.177 C 140.564 92.687 138.861 94.825 137.69 96.933 C 136.448 99.17 135.025 100.91 134.267 101.114 C 131.105 101.97 127.569 103.541 126.75 104.888 C 126.26 105.692 125.732 108.24 125.245 110.263 C 124.266 114.341 123.693 114.599 120.525 112.394 C 117.234 110.106 115.475 109.507 111.226 109.233 L 107.161 108.971 L 106.579 106.477 C 105.448 101.628 103.436 99.577 99.397 99.152 L 96.5 98.848 L 97.235 96.299 C 98.118 93.236 97.121 91.923 92.805 90.457 L 89.963 89.492 L 90.362 85.472 C 90.654 82.498 90.466 81.098 89.637 80.081 C 88.538 78.733 88.57 78.672 91.316 76.796 C 93.533 75.281 94.377 74.163 95.377 71.421 L 96.641 67.96 L 105.104 68.606 C 113.797 69.27 115.51 69.081 116.583 67.335 C 117.432 65.959 118.271 66.394 120.665 69.454 Z M 106.998 77.861 C 103.1 78.309 99.4 80.182 99.231 81.793 C 98.935 84.609 102.055 87.922 106.492 89.841 C 116.042 93.97 121.438 92.372 122.032 86.817 C 122.231 84.951 119.368 80.067 116.126 78.794 C 113.126 77.614 111.221 77.377 106.998 77.861 Z" id="path2408"/>
</svg>