<?xml version="1.0" encoding="utf-8"?><svg version="1.1" id="Layer_1" xmlns="http://www.w3.org/2000/svg" xmlns:xlink="http://www.w3.org/1999/xlink" x="0px" y="0px" viewBox="0 0 122.88 90.06" style="enable-background:new 0 0 122.88 90.06" xml:space="preserve"><g><path d="M118.64,70.87c1.06-0.93,2.68-0.82,3.61,0.24c0.93,1.06,0.82,2.68-0.24,3.61c-15.57,13.62-23.47,8.45-31.53,3.18 C63.11,60,61.13,105.16,29.6,84.54c-6.42-4.2-12.72-8.32-25.36,2.74c-1.06,0.93-2.68,0.82-3.61-0.24 c-0.93-1.06-0.82-2.68,0.24-3.61c15.57-13.62,23.47-8.45,31.53-3.18c27.37,17.9,29.35-27.26,60.87-6.64 C99.7,77.81,106,81.93,118.64,70.87L118.64,70.87z M4.24,19.18C3.18,20.11,1.56,20,0.63,18.94c-0.93-1.06-0.82-2.68,0.24-3.61 c15.57-13.62,23.47-8.45,31.53-3.18c27.37,17.9,29.35-27.26,60.87-6.64c6.42,4.2,12.72,8.32,25.36-2.74 c1.06-0.93,2.68-0.82,3.61,0.24c0.93,1.06,0.82,2.68-0.24,3.61c-15.57,13.62-23.47,8.45-31.53,3.18 C63.11-8.1,61.13,37.07,29.6,16.44C23.18,12.24,16.88,8.12,4.24,19.18L4.24,19.18z M4.24,41.88c-1.06,0.93-2.68,0.82-3.61-0.24 c-0.93-1.06-0.82-2.68,0.24-3.61c15.57-13.62,23.47-8.45,31.53-3.18c27.37,17.9,29.35-27.26,60.87-6.64 c6.42,4.2,12.72,8.32,25.36-2.74c1.06-0.93,2.68-0.82,3.61,0.24c0.93,1.06,0.82,2.68-0.24,3.61c-15.57,13.62-23.47,8.45-31.53,3.18 C63.11,14.6,61.13,59.77,29.6,39.14C23.18,34.94,16.88,30.82,4.24,41.88L4.24,41.88z M4.24,64.58c-1.06,0.93-2.68,0.82-3.61-0.24 c-0.93-1.06-0.82-2.68,0.24-3.61c15.57-13.62,23.47-8.45,31.53-3.18c27.37,17.9,29.35-27.26,60.87-6.64 c6.42,4.2,12.72,8.32,25.36-2.74c1.06-0.93,2.68-0.82,3.61,0.24c0.93,1.06,0.82,2.68-0.24,3.61c-15.57,13.62-23.47,8.45-31.53,3.18 C63.11,37.3,61.13,82.47,29.6,61.84C23.18,57.64,16.88,53.52,4.24,64.58L4.24,64.58z"/></g></svg>